<?xml version="1.0" standalone="no"?><!DOCTYPE svg PUBLIC "-//W3C//DTD SVG 1.1//EN" "http://www.w3.org/Graphics/SVG/1.1/DTD/svg11.dtd"><svg t="1613372202798" class="icon" viewBox="0 0 1024 1024" version="1.1" xmlns="http://www.w3.org/2000/svg" p-id="6853" xmlns:xlink="http://www.w3.org/1999/xlink" width="200" height="200"><defs><style type="text/css"></style></defs><path d="M512 59.392c-249.856 0-452.608 202.752-452.608 452.608 0 249.856 202.752 452.608 452.608 452.608s452.608-202.752 452.608-452.608c0-249.856-202.752-452.608-452.608-452.608z" fill="#DD001B" p-id="6854"></path><path d="M640 509.952V78.848c-20.48-6.656-44.544-10.24-65.024-13.824v444.928H640z" fill="#FFFFFF" p-id="6855"></path><path d="M512 512m-128 0a128 128 0 1 0 256 0 128 128 0 1 0-256 0Z" fill="#FFFFFF" p-id="6856"></path><path d="M437.248 256c-80.896 37.376-146.944 102.912-184.32 184.32H187.392c46.592-112.64 137.216-202.752 249.856-249.856V256zM580.608 833.536V768c77.824-40.448 143.36-105.984 184.32-184.32h65.536c-47.104 112.64-137.216 202.752-249.856 249.856z" fill="#FFFFFF" p-id="6857"></path></svg>